<?xml version="1.0" encoding="utf-8"?>
<!-- Generator: Adobe Illustrator 24.0.0, SVG Export Plug-In . SVG Version: 6.00 Build 0)  -->
<svg version="1.1" id="Layer_1" xmlns="http://www.w3.org/2000/svg" xmlns:xlink="http://www.w3.org/1999/xlink" x="0px" y="0px"
	 viewBox="0 0 930.6 132.6" style="enable-background:new 0 0 930.6 132.6;" xml:space="preserve">
<style type="text/css">
	.st0{fill:#009981;}
	.st1{fill:#00483D;}
</style>
<g>
	<path class="st0" d="M126.7,0l-7.9,36.6l-3.7,16.8H91.6L95,38.2H52.7L38.3,105H73l-6,27.7H32.3C2.2,132.6-3.8,115,2,88.1
		c3.6-16.7,11.1-51.5,11.1-51.5L21,0L126.7,0L126.7,0z"/>
	<path class="st1" d="M110.1,79.3l-3.4,15.2H149l14.4-66.8h-34.7l6-27.7h34.7c30.2,0,36.2,17.6,30.4,44.5
		c-3.6,16.7-11.1,51.5-11.1,51.5l-7.9,36.6h-40h-21.7H75l7.9-36.6l3.7-16.8L110.1,79.3L110.1,79.3z"/>
	<polygon class="st1" points="221.6,100 221.6,55.6 231.1,55.6 231.1,72.9 244.6,72.9 244.6,55.6 254.1,55.6 254.1,100 244.6,100 
		244.6,82.5 231.1,82.5 231.1,100 	"/>
	<path class="st1" d="M275.6,87.4c0,2,1.1,3,3.2,3h5.8c1.1,0,2-0.2,2.4-0.5c0.5-0.4,0.7-1.1,0.7-2.2V68.2c0-1.1-0.2-1.9-0.7-2.4
		c-0.5-0.4-1.3-0.7-2.5-0.7h-5.9c-1.2,0-2,0.2-2.4,0.6c-0.4,0.4-0.6,1.2-0.6,2.4C275.6,68.2,275.6,87.4,275.6,87.4z M266,65.2
		c0-0.7,0.1-1.5,0.3-2.3c0.5-2.6,1.6-4.5,3.3-5.6c1.5-1.1,3.7-1.6,6.5-1.6h11.3c6.6,0,9.9,3.2,9.9,9.6v25.2c0,6.4-3.3,9.6-10,9.6
		H276c-2.9,0-5.1-0.5-6.5-1.5c-1.6-1.2-2.7-3.1-3.2-5.8c-0.2-0.9-0.3-1.7-0.3-2.3L266,65.2L266,65.2z"/>
	<path class="st1" d="M330.2,81.4L325.7,67l-3.3,14.3H330.2z M306.5,100l12.3-38.9c1.3-3.9,3.8-5.9,7.5-5.9s6.2,2,7.5,6L346,100h-10
		l-3-9.6h-13.5l-3,9.6C316.6,100,306.5,100,306.5,100z"/>
	<path class="st1" d="M356.3,100V64.4c0-2.6,0.6-4.7,2-6.5c1.4-1.9,3.4-2.8,5.9-2.8c1,0,2.1,0.2,3.2,0.6c2.6,0.9,4.3,3.2,5.3,6.7
		l6.7,25.7V55.6h9.1v36.7c0,2.3-0.7,4.2-2.2,5.8c-1.5,1.6-3.3,2.4-5.5,2.5c-4.2,0.1-7-2.4-8.4-7.6l-6.8-25.5V100
		C365.5,100,356.3,100,356.3,100z"/>
	<path class="st1" d="M400.3,87.4V66.6c0-4.1,0.8-6.9,2.4-8.5c1.6-1.6,4.5-2.4,8.5-2.4h18v9.6h-17.6c-1,0.1-1.6,0.7-1.8,1.8v21.6
		c0.3,1,0.9,1.6,2,1.8h7.6c1.9,0,2.9-0.7,3-2V74.5h9.5v14.2c0,2.8-0.3,4.8-0.8,6c-1.6,3.5-4.6,5.3-8.9,5.3h-11
		c-6.5,0-10.1-2.5-10.8-7.5C400.4,91.7,400.3,90,400.3,87.4"/>
	<polygon class="st1" points="443.8,100 443.8,55.6 453.3,55.6 453.3,72.9 466.9,72.9 466.9,55.6 476.4,55.6 476.4,100 466.9,100 
		466.9,82.5 453.3,82.5 453.3,100 	"/>
	<path class="st1" d="M510.3,81.4L505.8,67l-3.3,14.3H510.3z M486.6,100l12.3-38.9c1.3-3.9,3.8-5.9,7.5-5.9s6.2,2,7.5,6l12.2,38.8
		h-10l-3-9.6h-13.5l-3,9.6C496.7,100,486.6,100,486.6,100z"/>
	<path class="st0" d="M536.4,100V63.4c0-2.5,0.8-4.5,2.3-6.1s3.5-2.3,6-2.3c0.9,0,1.7,0.1,2.5,0.3c3,0.6,4.9,2.5,5.6,5.6l5.6,25.6
		l6.2-25.6c0.8-3.1,2.6-4.9,5.5-5.6c0.8-0.2,1.7-0.3,2.6-0.3c2.5,0,4.5,0.8,6,2.3c1.5,1.5,2.3,3.6,2.3,6.1V100h-9.1V68.2L565,95
		c-0.2,0.9-0.6,1.8-1,2.7c-1,2.2-2.8,3.3-5.3,3.3c-3.2,0-5.3-2-6.3-6l-6.8-26.8V100L536.4,100L536.4,100z"/>
	<path class="st0" d="M602.4,87.4c0,2,1.1,3,3.2,3h5.8c1.1,0,2-0.2,2.4-0.5c0.5-0.4,0.7-1.1,0.7-2.2V68.2c0-1.1-0.2-1.9-0.7-2.4
		c-0.5-0.4-1.3-0.7-2.5-0.7h-5.9c-1.2,0-2,0.2-2.4,0.6c-0.4,0.4-0.6,1.2-0.6,2.4V87.4L602.4,87.4z M592.9,65.2
		c0-0.7,0.1-1.5,0.3-2.3c0.5-2.6,1.6-4.5,3.3-5.6c1.5-1.1,3.7-1.6,6.5-1.6h11.3c6.6,0,9.9,3.2,9.9,9.6v25.2c0,6.4-3.3,9.6-10,9.6
		h-11.2c-2.9,0-5.1-0.5-6.5-1.5c-1.6-1.2-2.7-3.1-3.2-5.8c-0.2-0.9-0.3-1.7-0.3-2.3L592.9,65.2L592.9,65.2z"/>
	<path class="st0" d="M645.5,90.4H656c1.4-0.2,2.1-1,2.1-2.5v-2.8c0-1.5-0.8-2.3-2.3-2.6h-10.3C645.6,87.7,645.6,90.4,645.5,90.4
		 M645.5,72.9H656c1.5,0,2.2-0.8,2.2-2.4v-2.9c0-0.6-0.2-1.2-0.6-1.7c-0.4-0.5-0.9-0.7-1.6-0.7h-10.5V72.9z M636,55.6h23
		c3.3,0,5.7,1,7.3,3c1.1,1.3,1.6,3.7,1.6,7v3.6c0,4.3-1.3,7.1-3.9,8.4c2.2,1,3.5,3.1,3.8,6.2c0.1,0.8,0.1,1.3,0.1,1.7V90
		c0,0.6,0,1.2-0.1,1.9c-0.7,5.4-3.7,8.1-9.2,8.1H636L636,55.6L636,55.6z"/>
	<rect x="679.7" y="55.6" class="st0" width="9.5" height="44.4"/>
	<path class="st0" d="M701.1,89.1V55.6h9.5v32.8c0,1.3,0.8,2,2.4,2H730l-0.1,9.6h-17.7c-0.6,0-1.2,0-1.6-0.1c-3.4-0.3-5.9-1.3-7.3-3
		C701.9,95.2,701.1,92.6,701.1,89.1"/>
	<path class="st0" d="M741,90.7V65.2c0-0.5,0.1-1.2,0.2-1.9c0.8-5.1,3.8-7.6,9.1-7.6h19.7v9.6h-17.3c-0.1,0-0.3,0.1-0.6,0.2
		c-1.1,0.3-1.6,1.2-1.6,2.6v4.9h19.5v9.6h-19.5v4.9c0,1.8,0.8,2.8,2.5,3h17v9.6h-18.4C744.5,100,741,96.9,741,90.7"/>
	<path class="st0" d="M780.9,94.8c-0.1-1.4,0.4-2.7,1.5-3.8c1.1-1.1,2.3-1.6,3.8-1.6c1.5,0,2.7,0.5,3.7,1.5c1,1,1.5,2.3,1.5,3.7
		c0,1.4-0.5,2.7-1.5,3.7c-1,1-2.3,1.6-3.7,1.6c-1.4,0-2.7-0.5-3.6-1.5C781.6,97.5,781,96.3,780.9,94.8"/>
	<path class="st0" d="M802.5,90.1V65.7c0-3.8,0.8-6.5,2.3-7.9c1.5-1.4,4.2-2.1,8.1-2.1h18.6v9.6h-17.3c-1.2,0.1-2,0.8-2.2,2v19.4
		c0,1.4,0.2,2.3,0.4,2.8c0.4,0.7,1.2,1.1,2.4,1.1h16.7v9.6h-20c-1.1,0-2.2-0.2-3.4-0.7C804.4,97.8,802.5,94.7,802.5,90.1"/>
	<path class="st0" d="M852.5,87.4c0,2,1.1,3,3.2,3h5.8c1.1,0,2-0.2,2.4-0.5c0.5-0.4,0.7-1.1,0.7-2.2V68.2c0-1.1-0.2-1.9-0.7-2.4
		c-0.5-0.4-1.3-0.7-2.5-0.7h-5.9c-1.2,0-2,0.2-2.4,0.6c-0.4,0.4-0.6,1.2-0.6,2.4V87.4L852.5,87.4z M843,65.2c0-0.7,0.1-1.5,0.3-2.3
		c0.5-2.6,1.6-4.5,3.3-5.6c1.5-1.1,3.7-1.6,6.5-1.6h11.3c6.6,0,9.9,3.2,9.9,9.6v25.2c0,6.4-3.3,9.6-10,9.6h-11.2
		c-2.9,0-5.1-0.5-6.5-1.5c-1.6-1.2-2.7-3.1-3.2-5.8c-0.2-0.9-0.3-1.7-0.3-2.3L843,65.2L843,65.2z"/>
	<path class="st0" d="M886,100V63.4c0-2.5,0.8-4.5,2.3-6.1c1.5-1.5,3.5-2.3,6-2.3c0.8,0,1.7,0.1,2.5,0.3c3,0.6,4.9,2.5,5.6,5.6
		l5.6,25.6l6.2-25.6c0.8-3.1,2.6-4.9,5.5-5.6c0.8-0.2,1.7-0.3,2.6-0.3c2.5,0,4.5,0.8,6,2.3c1.5,1.5,2.3,3.6,2.3,6.1V100h-9.1V68.2
		L914.6,95c-0.2,0.9-0.5,1.8-1,2.7c-1.1,2.2-2.8,3.3-5.3,3.3c-3.2,0-5.3-2-6.3-6l-6.8-26.8V100L886,100L886,100z"/>
</g>
</svg>
